<svg  xmlns="http://www.w3.org/2000/svg" width="29" height="26" viewBox="0 0 29 26"><g><g><path fill="#bdbdbd" d="M14.073.007c1.042 0 1.892.707 2.078 1.673h.055l6.83 7.547h-3.418l-4.715-5.214a2.18 2.18 0 0 1-.83.185c-.292 0-.57-.079-.825-.185L8.527 9.227H5.115L11.94 1.68h.054C12.186.714 13.036.007 14.073.007zM1.703 10.902h25.6c.945 0 1.703.75 1.703 1.679v.838c0 .884-.691 1.58-1.57 1.65l-2.697 9.246c-.854 1.678-1.703 1.678-2.558 1.678H6.818c-.849 0-1.703 0-2.558-1.678L1.57 15.07C.684 15-.007 14.303-.007 13.42v-.838c0-.93.762-1.679 1.709-1.679zm4.8 4.191c-.947 0-1.563.7-1.363 1.572l1.2 5.216c.2.875 1.133 1.595 2.078 1.595h.43c.946 0 1.559-.72 1.358-1.595l-1.2-5.216c-.2-.872-1.133-1.572-2.079-1.572zm8 0c-.947 0-1.71.75-1.71 1.68v5.029c0 .93.763 1.674 1.71 1.674.945 0 1.703-.744 1.703-1.674v-5.03c0-.93-.758-1.679-1.703-1.679zm7.57 0c-.946 0-1.879.7-2.08 1.572l-1.2 5.216c-.199.875.414 1.595 1.358 1.595h.43c.947 0 1.879-.72 2.08-1.595l1.2-5.216c.199-.872-.413-1.572-1.358-1.572z"/></g></g></svg>