<svg xmlns="http://www.w3.org/2000/svg" width="61" height="120" viewBox="0 0 61 120"><g><g><path fill="#fff" d="M57.028 8.257s8.126 11.55 1.16 40.143c0 0-5.804 61.54.58 68.168 0 0-17.412 3.787-23.216 1.893 0 0-1.742-58.7-1.742-64.001 0-5.302-3.482-10.983-3.482-10.983s-2.032 12.308-2.322 17.42c-.29 5.113-2.322 57.943-2.322 57.943s-16.252 3.598-23.217-1.893c0 0 3.773-34.652 2.902-51.505C4.499 48.59-2.177 19.997.726 13.938 3.628 7.878 3.628 7.5 3.628 7.5m.494-3.334L4.946 0h49.46l1.648 6.667z"/></g></g></svg>