<svg xmlns="http://www.w3.org/2000/svg" width="31" height="32" viewBox="0 0 31 32"><g><g><path fill="#fff" d="M4.237 23.115a4.022 4.022 0 0 0-2.849 1.18 4.01 4.01 0 0 0-1.183 2.843c0 1.112.45 2.11 1.183 2.84a4.022 4.022 0 0 0 2.85 1.18 4.025 4.025 0 0 0 2.856-1.178l.002-.002a4.003 4.003 0 0 0 1.185-2.84 4.015 4.015 0 0 0-1.187-2.843 4.045 4.045 0 0 0-2.857-1.18zM.208 11.138v5.804c3.79.002 7.372 1.49 10.054 4.174a14.183 14.183 0 0 1 4.168 10.068h.002v.011h5.826c-.004-5.527-2.25-10.534-5.884-14.17-3.632-3.633-8.638-5.883-14.166-5.887zM.218.805v5.802c13.544.007 24.551 11.033 24.56 24.588h5.817c-.004-8.377-3.41-15.967-8.913-21.476C16.18 4.218 8.594.81.218.805z"/></g></g></svg>