<svg xmlns="http://www.w3.org/2000/svg" width="114" height="110" viewBox="0 0 114 110"><g><g><path fill="#fff" d="M64.859 108.721c-18.748 4.76-40.03-5.512-40.03-5.512l.507-46.606s6.08-1.503-2.027-.501C15.2 57.104-.001 45.077-.001 45.077s3.801-8.52 10.642-22.551C17.48 8.494 21.28 9.998 23.309 9.496c2.027-.5 16.721-5.512 16.721-5.512C59.032 16.262 74.487 2.48 74.487 2.48h1.52s3.547 2.505 10.134 5.01c6.587 2.507 16.215 8.019 19.255 12.028 3.04 4.01 8.614 32.574 8.614 32.574s.76-.25-7.094 4.009c-7.854 4.26-16.215-2.506-16.215-2.506l1.014 50.114s-8.108.25-26.856 5.011zM44.112 0c7.158 5.953 27.466 0 27.466 0l1.665 1.654c-18.644 10.253-31.628.827-31.628.827"/></g></g></svg>