<svg xmlns="http://www.w3.org/2000/svg" width="44" height="32" viewBox="0 0 44 32"><g><g><path fill="#fff" d="M39.01 14.316c2.468-.205 4.144-1.33 4.791-2.86-.891.55-3.658 1.152-5.187.576-.074-.355-.157-.7-.239-1.007-1.166-4.292-5.149-7.744-9.326-7.324.336-.135.68-.27 1.022-.383.46-.161 3.16-.603 2.732-1.561-.36-.835-3.652.635-4.274.829.819-.307 2.175-.835 2.32-1.783-1.258.173-2.488.765-3.44 1.638.344-.377.605-.83.66-1.315-3.348 2.144-5.303 6.468-6.884 10.664-1.243-1.212-2.344-2.16-3.33-2.688-2.772-1.491-6.088-3.042-11.288-4.981-.159 1.723.85 4.023 3.762 5.547-.63-.086-1.783.102-2.704.323.374 1.982 1.6 3.608 4.925 4.395-1.518.102-2.302.446-3.017 1.195.694 1.373 2.382 2.994 5.418 2.66-3.375 1.46-1.375 4.163 1.37 3.76-4.683 4.852-12.072 4.497-16.314.436 11.073 15.139 35.148 8.956 38.736-5.628 2.69.027 4.271-.937 5.25-1.987-1.55.264-3.793-.01-4.983-.506z"/></g></g></svg>