<svg xmlns="http://www.w3.org/2000/svg" width="94" height="89" viewBox="0 0 94 89"><g><g><path fill="#fff" d="M47.008-.02c2.316 0 4.293 2.251 4.969 5.397 23.6 2.085 42.004 18.848 42.004 39.13h-.242c-1.096-3.006-5.823-5.244-11.51-5.244-5.67 0-10.397 2.238-11.493 5.243h-.483c-1.096-3.005-5.837-5.243-11.51-5.243-5.67 0-10.397 2.238-11.494 5.243h-.5c-1.092-3.005-5.823-5.243-11.493-5.243s-10.4 2.238-11.493 5.243h-.499c-1.097-3.005-5.824-5.243-11.495-5.243-5.673 0-10.413 2.238-11.51 5.243H.02c0-20.28 18.402-37.044 42.004-39.13.676-3.145 2.653-5.395 4.985-5.395zm-5.227 45.588c2.522.933 4.346 2.442 4.969 4.168h.499c.624-1.726 2.446-3.235 4.97-4.168v30.357c0 7.238-5.85 13.094-13.05 13.094-6.833 0-12.411-5.307-12.96-12.033-.077-.332-.09-.69-.09-1.061a5.214 5.214 0 0 1 5.225-5.23 5.2 5.2 0 0 1 5.21 5.23 2.614 2.614 0 0 0 2.615 2.621 2.603 2.603 0 0 0 2.612-2.621z"/></g></g></svg>